<?xml version="1.0" encoding="UTF-8" standalone="no"?>
<!-- Created with Inkscape (http://www.inkscape.org/) -->

<svg
   width="121.00349mm"
   height="95.89547mm"
   viewBox="0 0 121.00349 95.89547"
   version="1.1"
   id="svg1"
   inkscape:version="1.3.2 (091e20e, 2023-11-25, custom)"
   sodipodi:docname="topology.svg"
   xmlns:inkscape="http://www.inkscape.org/namespaces/inkscape"
   xmlns:sodipodi="http://sodipodi.sourceforge.net/DTD/sodipodi-0.dtd"
   xmlns="http://www.w3.org/2000/svg"
   xmlns:svg="http://www.w3.org/2000/svg">
  <sodipodi:namedview
     id="namedview1"
     pagecolor="#ffffff"
     bordercolor="#000000"
     borderopacity="0.25"
     inkscape:showpageshadow="2"
     inkscape:pageopacity="0.0"
     inkscape:pagecheckerboard="0"
     inkscape:deskcolor="#d1d1d1"
     inkscape:document-units="mm"
     inkscape:zoom="0.76702441"
     inkscape:cx="396.3368"
     inkscape:cy="144.06321"
     inkscape:window-width="2560"
     inkscape:window-height="1057"
     inkscape:window-x="-8"
     inkscape:window-y="-8"
     inkscape:window-maximized="1"
     inkscape:current-layer="g30" />
  <defs
     id="defs1" />
  <g
     inkscape:label="Livello 1"
     inkscape:groupmode="layer"
     id="layer1">
    <g
       transform="matrix(0.26458333,0,0,0.26458333,-51.329124,-47.624999)"
       id="g30">
      <path
         d="m 195,260 c 0,-21.539 17.461,-39 39,-39 21.539,0 39,17.461 39,39 0,21.539 -17.461,39 -39,39 -21.539,0 -39,-17.461 -39,-39 z"
         stroke="#000000"
         stroke-width="2"
         stroke-miterlimit="8"
         fill="#8ed973"
         fill-rule="evenodd"
         id="path1" />
      <path
         d="m 5.5898437,-5.296875 q -0.1757812,-0.9257812 -0.3632812,-1.78125 -0.1875,-0.8554687 -0.3867188,-1.59375 -0.1992187,-0.7382813 -0.328125,-0.9609375 -0.1289062,-0.234375 -0.28125,-0.3164063 -0.140625,-0.09375 -0.3632812,-0.09375 -0.2460937,0 -0.4453125,0.1171881 -0.1992187,0.1054688 -0.4335937,0.3867188 -0.234375,0.2695312 -0.6210938,0.8554687 L 1.6054687,-9.1875 q 0.7382813,-1.113281 1.4179688,-1.664063 0.6796875,-0.550781 1.6054687,-0.550781 0.3632813,0 0.6328125,0.08203 0.28125,0.08203 0.4921875,0.257813 0.2109375,0.164062 0.375,0.433594 0.1640625,0.269531 0.3164063,0.738281 0.1523437,0.4570312 0.28125,1.1484375 0.140625,0.6796875 0.2460937,1.4179688 H 7.0898437 Q 8.2148438,-8.90625 8.7890625,-9.6328125 9.375,-10.371094 9.7734375,-10.722656 q 0.3984375,-0.363282 0.7617185,-0.503907 0.375,-0.152343 0.984375,-0.152343 0.550782,0 0.902344,0.140625 l -0.46875,2.1210935 H 11.132813 Q 11.0625,-9.609375 10.722656,-9.609375 q -0.105468,0 -0.222656,0.035156 -0.117187,0.035156 -0.292969,0.1523438 -0.164062,0.1171875 -0.4921872,0.4570312 -0.328125,0.3398438 -0.7382813,0.8320313 -0.4101562,0.4921875 -0.84375,1.03125 l -0.796875,0.9960938 q 0.2109375,1.125 0.3984375,1.9453125 0.1875,0.8203124 0.328125,1.3710937 0.1523438,0.5390627 0.2578125,0.855469 0.1171875,0.3164062 0.2460938,0.4804687 0.1289062,0.1523438 0.2578125,0.2226563 0.140625,0.058594 0.3164062,0.058594 0.3164063,0 0.609375,-0.2460937 0.304688,-0.2460938 0.867188,-1.1132813 l 0.761718,0.5039062 Q 10.558594,-0.80859375 9.890625,-0.3046875 9.234375,0.1875 8.3203125,0.1875 7.8164062,0.1875 7.4648437,0 7.1132812,-0.17578125 6.8554687,-0.57421875 6.5976562,-0.97265625 6.3984375,-1.8164062 6.0351562,-3.3164063 5.953125,-4.1132812 H 5.8359375 Q 4.59375,-2.3671875 3.984375,-1.6054687 3.3867188,-0.84375 2.9882813,-0.48046875 2.6015625,-0.1171875 2.2265625,0.0234375 1.8632812,0.17578125 1.2539062,0.17578125 q -0.5507812,0 -0.9023437,-0.140625 l 0.46875,-2.12109375 H 1.640625 q 0.070312,0.4921875 0.4101563,0.4921875 0.1640625,0 0.3398437,-0.082031 0.1875,-0.09375 0.5273438,-0.4218751 0.3398437,-0.3398437 0.9375,-1.0546875 0.5976562,-0.7148437 1.7343749,-2.1445314 z"
         id="text1"
         style="font-size:24px;font-family:'Cambria Math', 'Cambria Math_MSFontService', sans-serif"
         transform="translate(219.664,267)"
         aria-label="ð‘¥" />
      <path
         d="m 6.1083984,-2.2939453 q 0,0.5097656 0.052734,0.7734375 0.061523,0.2548828 0.2021484,0.421875 0.1494141,0.15820311 0.421875,0.2548828 0.272461,0.0878906 0.6855469,0.140625 0.413086,0.0439453 1.0898438,0.0615234 V 0 H 2.0654297 V -0.64160156 Q 3.0410156,-0.68554687 3.4541016,-0.75585937 3.8759766,-0.83496094 4.0957031,-0.984375 4.3154297,-1.1337891 4.4121094,-1.40625 4.5175781,-1.6787109 4.5175781,-2.2939453 V -9.421875 q 0,-0.3515625 -0.1230469,-0.5097656 -0.1230468,-0.1669924 -0.3603515,-0.1669924 -0.28125,0 -0.7998047,0.2900392 -0.5185547,0.2900391 -1.2832031,0.7998047 L 1.5644531,-9.6855469 5.6777344,-12.137695 h 0.4833984 q -0.052734,0.84375 -0.052734,2.3378903 z"
         id="text2"
         style="font-size:18px;font-family:'Cambria Math', 'Cambria Math_MSFontService', sans-serif"
         transform="translate(231.711,272)"
         aria-label="1" />
      <path
         d="m 195,352.5 c 0,-21.815 17.461,-39.5 39,-39.5 21.539,0 39,17.685 39,39.5 0,21.815 -17.461,39.5 -39,39.5 -21.539,0 -39,-17.685 -39,-39.5 z"
         stroke="#000000"
         stroke-width="2"
         stroke-miterlimit="8"
         fill="#8ed973"
         fill-rule="evenodd"
         id="path2" />
      <path
         d="m 5.5898437,-5.296875 q -0.1757812,-0.9257812 -0.3632812,-1.78125 -0.1875,-0.8554687 -0.3867188,-1.59375 -0.1992187,-0.7382813 -0.328125,-0.9609375 -0.1289062,-0.234375 -0.28125,-0.3164063 -0.140625,-0.09375 -0.3632812,-0.09375 -0.2460937,0 -0.4453125,0.1171881 -0.1992187,0.1054688 -0.4335937,0.3867188 -0.234375,0.2695312 -0.6210938,0.8554687 L 1.6054687,-9.1875 q 0.7382813,-1.113281 1.4179688,-1.664063 0.6796875,-0.550781 1.6054687,-0.550781 0.3632813,0 0.6328125,0.08203 0.28125,0.08203 0.4921875,0.257813 0.2109375,0.164062 0.375,0.433594 0.1640625,0.269531 0.3164063,0.738281 0.1523437,0.4570312 0.28125,1.1484375 0.140625,0.6796875 0.2460937,1.4179688 H 7.0898437 Q 8.2148438,-8.90625 8.7890625,-9.6328125 9.375,-10.371094 9.7734375,-10.722656 q 0.3984375,-0.363282 0.7617185,-0.503907 0.375,-0.152343 0.984375,-0.152343 0.550782,0 0.902344,0.140625 l -0.46875,2.1210935 H 11.132813 Q 11.0625,-9.609375 10.722656,-9.609375 q -0.105468,0 -0.222656,0.035156 -0.117187,0.035156 -0.292969,0.1523438 -0.164062,0.1171875 -0.4921872,0.4570312 -0.328125,0.3398438 -0.7382813,0.8320313 -0.4101562,0.4921875 -0.84375,1.03125 l -0.796875,0.9960938 q 0.2109375,1.125 0.3984375,1.9453125 0.1875,0.8203124 0.328125,1.3710937 0.1523438,0.5390627 0.2578125,0.855469 0.1171875,0.3164062 0.2460938,0.4804687 0.1289062,0.1523438 0.2578125,0.2226563 0.140625,0.058594 0.3164062,0.058594 0.3164063,0 0.609375,-0.2460937 0.304688,-0.2460938 0.867188,-1.1132813 l 0.761718,0.5039062 Q 10.558594,-0.80859375 9.890625,-0.3046875 9.234375,0.1875 8.3203125,0.1875 7.8164062,0.1875 7.4648437,0 7.1132812,-0.17578125 6.8554687,-0.57421875 6.5976562,-0.97265625 6.3984375,-1.8164062 6.0351562,-3.3164063 5.953125,-4.1132812 H 5.8359375 Q 4.59375,-2.3671875 3.984375,-1.6054687 3.3867188,-0.84375 2.9882813,-0.48046875 2.6015625,-0.1171875 2.2265625,0.0234375 1.8632812,0.17578125 1.2539062,0.17578125 q -0.5507812,0 -0.9023437,-0.140625 l 0.46875,-2.12109375 H 1.640625 q 0.070312,0.4921875 0.4101563,0.4921875 0.1640625,0 0.3398437,-0.082031 0.1875,-0.09375 0.5273438,-0.4218751 0.3398437,-0.3398437 0.9375,-1.0546875 0.5976562,-0.7148437 1.7343749,-2.1445314 z"
         id="text3"
         style="font-size:24px;font-family:'Cambria Math', 'Cambria Math_MSFontService', sans-serif"
         transform="translate(219.387,360)"
         aria-label="ð‘¥" />
      <path
         d="m 6.1699219,-1.40625 q 0.430664,0 0.6943359,-0.052734 0.2636719,-0.052734 0.421875,-0.1757812 0.1582031,-0.1230469 0.2460938,-0.3164063 0.09668,-0.2021484 0.2373046,-0.6152344 H 8.5166016 L 8.3671875,0 H 1.1337891 v -0.421875 q 0.3779296,-0.9228516 1.0195312,-1.8896484 0.6416016,-0.9667969 1.819336,-2.2763672 1.0195312,-1.125 1.4677734,-1.7050781 0.4921875,-0.6328125 0.7294922,-1.0898438 0.2460937,-0.4658203 0.3515625,-0.8701172 0.1054687,-0.4130859 0.1054687,-0.8261719 0,-0.6591797 -0.2109375,-1.1601564 -0.2109375,-0.509765 -0.6503906,-0.799805 -0.4306641,-0.290039 -1.0898438,-0.290039 -1.6435546,0 -2.2148437,1.8281254 H 1.3974609 v -1.6875004 q 1.0634766,-0.500976 1.9863282,-0.720703 0.9316406,-0.228515 1.6699218,-0.228515 1.6347657,0 2.4697266,0.720703 0.8349609,0.711914 0.8349609,2.0742186 0,0.4658203 -0.09668,0.8613281 -0.087891,0.3867187 -0.2900391,0.7734375 -0.1933594,0.3779297 -0.5273438,0.8173828 -0.3339843,0.4394531 -0.7382812,0.8964844 -0.4042969,0.4482422 -1.397461,1.5029297 -1.6699218,1.7666015 -2.4521484,3.0849609 z"
         id="text4"
         style="font-size:18px;font-family:'Cambria Math', 'Cambria Math_MSFontService', sans-serif"
         transform="translate(231.987,365)"
         aria-label="2" />
      <path
         d="m 195,445 c 0,-21.539 17.461,-39 39,-39 21.539,0 39,17.461 39,39 0,21.539 -17.461,39 -39,39 -21.539,0 -39,-17.461 -39,-39 z"
         stroke="#000000"
         stroke-width="2"
         stroke-linecap="square"
         stroke-miterlimit="8"
         stroke-dasharray="6, 2"
         fill="#00b0f0"
         fill-rule="evenodd"
         id="path4" />
      <path
         d="m 5.5898437,-5.296875 q -0.1757812,-0.9257812 -0.3632812,-1.78125 -0.1875,-0.8554687 -0.3867188,-1.59375 -0.1992187,-0.7382813 -0.328125,-0.9609375 -0.1289062,-0.234375 -0.28125,-0.3164063 -0.140625,-0.09375 -0.3632812,-0.09375 -0.2460937,0 -0.4453125,0.1171881 -0.1992187,0.1054688 -0.4335937,0.3867188 -0.234375,0.2695312 -0.6210938,0.8554687 L 1.6054687,-9.1875 q 0.7382813,-1.113281 1.4179688,-1.664063 0.6796875,-0.550781 1.6054687,-0.550781 0.3632813,0 0.6328125,0.08203 0.28125,0.08203 0.4921875,0.257813 0.2109375,0.164062 0.375,0.433594 0.1640625,0.269531 0.3164063,0.738281 0.1523437,0.4570312 0.28125,1.1484375 0.140625,0.6796875 0.2460937,1.4179688 H 7.0898437 Q 8.2148438,-8.90625 8.7890625,-9.6328125 9.375,-10.371094 9.7734375,-10.722656 q 0.3984375,-0.363282 0.7617185,-0.503907 0.375,-0.152343 0.984375,-0.152343 0.550782,0 0.902344,0.140625 l -0.46875,2.1210935 H 11.132813 Q 11.0625,-9.609375 10.722656,-9.609375 q -0.105468,0 -0.222656,0.035156 -0.117187,0.035156 -0.292969,0.1523438 -0.164062,0.1171875 -0.4921872,0.4570312 -0.328125,0.3398438 -0.7382813,0.8320313 -0.4101562,0.4921875 -0.84375,1.03125 l -0.796875,0.9960938 q 0.2109375,1.125 0.3984375,1.9453125 0.1875,0.8203124 0.328125,1.3710937 0.1523438,0.5390627 0.2578125,0.855469 0.1171875,0.3164062 0.2460938,0.4804687 0.1289062,0.1523438 0.2578125,0.2226563 0.140625,0.058594 0.3164062,0.058594 0.3164063,0 0.609375,-0.2460937 0.304688,-0.2460938 0.867188,-1.1132813 l 0.761718,0.5039062 Q 10.558594,-0.80859375 9.890625,-0.3046875 9.234375,0.1875 8.3203125,0.1875 7.8164062,0.1875 7.4648437,0 7.1132812,-0.17578125 6.8554687,-0.57421875 6.5976562,-0.97265625 6.3984375,-1.8164062 6.0351562,-3.3164063 5.953125,-4.1132812 H 5.8359375 Q 4.59375,-2.3671875 3.984375,-1.6054687 3.3867188,-0.84375 2.9882813,-0.48046875 2.6015625,-0.1171875 2.2265625,0.0234375 1.8632812,0.17578125 1.2539062,0.17578125 q -0.5507812,0 -0.9023437,-0.140625 l 0.46875,-2.12109375 H 1.640625 q 0.070312,0.4921875 0.4101563,0.4921875 0.1640625,0 0.3398437,-0.082031 0.1875,-0.09375 0.5273438,-0.4218751 0.3398437,-0.3398437 0.9375,-1.0546875 0.5976562,-0.7148437 1.7343749,-2.1445314 z"
         id="text5"
         style="font-size:24px;font-family:'Cambria Math', 'Cambria Math_MSFontService', sans-serif"
         transform="translate(206.207,453)"
         aria-label="ð‘¥" />
      <path
         d="M 2.1796875,-0.43066406 1.3710937,0.140625 0.80859375,0 3.0849609,-10.045898 q 0.2021485,-0.896485 0.2021485,-1.300782 0,-0.36914 -0.2285156,-0.518554 -0.2197266,-0.149414 -0.7998047,-0.166993 l 0.1054687,-0.457031 2.2236328,-0.0791 h 0.5097656 l -1.5468749,6.1523434 0.1142578,0.035156 q 0.852539,-1.1425781 1.5996093,-1.6523437 0.7470703,-0.5097657 1.4941407,-0.5097657 0.9580078,0 1.4853515,0.7294922 0.5361328,0.7294922 0.5361328,2.0566407 0,1.4501953 -0.5888671,2.8564453 Q 7.6113281,-1.5029297 6.5742187,-0.67675781 5.5371094,0.140625 4.2539062,0.140625 q -1.1689453,0 -2.0742187,-0.57128906 z M 2.953125,-3.0585938 q -0.1318359,0.6152344 -0.1318359,1.1953126 0,0.6943359 0.2988281,1.00195307 0.3076172,0.30761719 1.0107422,0.30761719 0.3603515,0 0.6855468,-0.11425781 0.3251954,-0.12304687 0.6591797,-0.39550785 0.3427735,-0.2724609 0.6416016,-0.711914 0.3076172,-0.4482422 0.5625,-1.0986328 0.2548828,-0.6503907 0.3955078,-1.3886719 0.140625,-0.7470703 0.140625,-1.4238281 0,-0.9140625 -0.2636719,-1.3710938 -0.2548828,-0.4570312 -0.8261718,-0.4570312 -0.421875,0 -0.834961,0.2724609 -0.4042969,0.2636719 -0.9052734,0.8876953 -0.5009766,0.6152344 -0.8173828,1.265625 -0.3164063,0.6503906 -0.5361328,1.6611328 z m 11.71582,-8.7890622 -0.404297,1.705078 h -1.555664 l 0.404297,-1.705078 z m -2.830078,5.9238279 q 0.202149,-0.8789063 0.202149,-1.3183594 0,-0.3955078 -0.19336,-0.5361328 -0.18457,-0.140625 -0.738281,-0.1582031 l 0.09668,-0.4658204 2.144531,-0.079102 h 0.518555 l -1.265625,5.6425781 q -0.19336,0.8613281 -0.19336,1.3007813 0,0.3515625 0.114258,0.5097656 0.114258,0.15820311 0.360352,0.15820311 0.263672,0 0.5625,-0.21093751 0.298828,-0.2197265 0.84375,-0.8261719 l 0.500976,0.4921875 Q 13.930664,-0.50976562 13.394531,-0.18457031 12.858398,0.140625 12.19043,0.140625 q -0.571289,0 -0.914063,-0.41308594 -0.342773,-0.421875 -0.342773,-1.07226566 0,-0.6679687 0.246094,-1.7050781 z m 11.118164,-2.0478516 0.808594,-0.5800781 0.5625,0.140625 -1.291992,5.5722656 q -0.19336,0.8349609 -0.19336,1.3007813 0,0.3515625 0.114258,0.5097656 0.114258,0.15820311 0.360352,0.15820311 0.263672,0 0.5625,-0.21093751 0.298828,-0.2197265 0.84375,-0.8261719 l 0.500976,0.4921875 q -0.791015,0.84375004 -1.353515,1.2041016 -0.553711,0.3515625 -1.204102,0.3515625 -0.544922,0 -0.870117,-0.36035156 -0.325195,-0.36035156 -0.325195,-0.95800784 0,-0.4833984 0.202148,-1.0283203 l -0.114258,-0.035156 q -0.84375,1.2304687 -1.599609,1.80175777 -0.755859,0.57128907 -1.599609,0.57128907 -0.966797,0 -1.50293,-0.72949219 -0.527344,-0.72949215 -0.527344,-2.04785155 0,-1.5117188 0.588867,-2.9003906 0.597657,-1.397461 1.634766,-2.1972657 1.037109,-0.8085937 2.311523,-0.8085937 0.571289,0 1.063477,0.1318359 0.500976,0.1230469 1.02832,0.448242 z m -0.773437,2.6191406 q 0.0791,-0.3603515 0.105468,-0.6240234 0.02637,-0.2636719 0.02637,-0.5712891 0,-0.6767578 -0.290039,-0.993164 -0.290039,-0.3164063 -0.984375,-0.3164063 -0.905274,0 -1.625977,0.7294922 -0.720703,0.7294922 -1.125,1.959961 -0.404297,1.2216796 -0.404297,2.4433593 0,0.9140625 0.246094,1.3710938 0.254883,0.44824216 0.84375,0.44824216 0.580078,0 1.133789,-0.50097656 0.5625,-0.5009766 1.151367,-1.4238281 0.597656,-0.9316407 0.84375,-2.1445313 z M 32.0625,-6.2666016 q -0.09668,-0.7822265 -0.518555,-1.1865234 -0.413086,-0.4042969 -1.30957,-0.4042969 -0.694336,0 -1.125,0.3603516 -0.430664,0.3515625 -0.430664,0.9316406 0,0.3164063 0.105469,0.5625 0.114257,0.2373047 0.448242,0.5273438 0.333984,0.290039 1.037109,0.711914 0.553711,0.3339844 0.887696,0.6152344 0.333984,0.2724609 0.527343,0.5449219 0.19336,0.2724609 0.28125,0.5800781 0.08789,0.2988281 0.08789,0.7294922 0,0.7822266 -0.421875,1.34472655 -0.413086,0.55371094 -1.133789,0.82617188 -0.711914,0.27246093 -1.625977,0.27246093 -0.729492,0 -1.432617,-0.11425781 Q 26.736328,-0.0703125 25.875,-0.33398438 L 26.296875,-2.25 h 0.685547 q 0.03516,0.84375 0.474609,1.27441406 0.439453,0.43066407 1.397461,0.43066407 0.834961,0 1.300781,-0.36914063 0.47461,-0.3779297 0.47461,-1.0634766 0,-0.3955078 -0.131836,-0.6767578 -0.131836,-0.290039 -0.430664,-0.5537109 -0.298828,-0.2636719 -0.949219,-0.6591797 -0.685547,-0.4130859 -1.072266,-0.7470703 -0.377929,-0.3339844 -0.571289,-0.7207031 -0.193359,-0.3955078 -0.193359,-0.9052735 0,-0.6943359 0.369141,-1.2128906 0.377929,-0.5273437 1.072265,-0.8085938 0.694336,-0.28125 1.617188,-0.28125 0.817383,0 1.485351,0.09668 0.676758,0.09668 1.344727,0.3339844 l -0.395508,1.8457031 z"
         id="text6"
         style="font-size:18px;font-family:'Cambria Math', 'Cambria Math_MSFontService', sans-serif"
         transform="translate(218.807,458)"
         aria-label="ð‘ð‘–ð‘Žð‘ " />
      <path
         d="m 418,220.5 c 0,-21.815 17.461,-39.5 39,-39.5 21.539,0 39,17.685 39,39.5 0,21.815 -17.461,39.5 -39,39.5 -21.539,0 -39,-17.685 -39,-39.5 z"
         stroke="#000000"
         stroke-width="2"
         stroke-miterlimit="8"
         fill="#f2cfee"
         fill-rule="evenodd"
         id="path6" />
      <path
         d="m 4.0898437,-13.394531 q 0.28125,-1.253907 0.28125,-1.734375 0,-0.492188 -0.3046875,-0.691407 Q 3.7734375,-16.019531 3,-16.042969 l 0.140625,-0.609375 2.9648437,-0.105468 h 0.6796875 l -2.015625,8.1210932 0.140625,0.046875 q 1.1132813,-1.4765622 2.0976563,-2.1328122 0.9960938,-0.667969 2.0039063,-0.667969 1.0898442,0 1.6757812,0.632812 0.585938,0.621094 0.585938,1.7343755 0,0.7382812 -0.339844,2.0976563 l -0.761719,3.0703124 q -0.3164062,1.2773438 -0.3164062,1.8046875 0,0.4687501 0.1523442,0.6796876 0.152343,0.2109375 0.480468,0.2109375 0.351563,0 0.75,-0.28125 0.398438,-0.2929688 1.125,-1.1015626 l 0.667969,0.6562501 q -1.125,1.1835937 -1.851562,1.6289062 Q 10.464844,0.1875 9.5625,0.1875 q -0.7617187,0 -1.21875,-0.5390625 -0.4453125,-0.5390625 -0.4453125,-1.3945312 0,-0.7617188 0.3867188,-2.2382813 l 0.5039062,-2.0273437 q 0.2695313,-1.0898438 0.3632813,-1.6289063 0.09375,-0.5507813 0.09375,-0.8554688 0,-0.8320312 -0.2695313,-1.171875 -0.2695312,-0.3515622 -0.8789062,-0.3515622 -0.4804688,0 -1.0664063,0.3984372 -0.5859375,0.3984375 -1.2304688,1.21875 -0.6445312,0.8085938 -1.03125,1.5585938 -0.375,0.7382813 -0.5976562,1.7695313 L 3.1054688,0 H 1.078125 Z"
         id="text7"
         style="font-size:24px;font-family:'Cambria Math', 'Cambria Math_MSFontService', sans-serif"
         transform="translate(442.455,228)"
         aria-label="â„Ž" />
      <path
         d="m 6.1083984,-2.2939453 q 0,0.5097656 0.052734,0.7734375 0.061523,0.2548828 0.2021484,0.421875 0.1494141,0.15820311 0.421875,0.2548828 0.272461,0.0878906 0.6855469,0.140625 0.413086,0.0439453 1.0898438,0.0615234 V 0 H 2.0654297 V -0.64160156 Q 3.0410156,-0.68554687 3.4541016,-0.75585937 3.8759766,-0.83496094 4.0957031,-0.984375 4.3154297,-1.1337891 4.4121094,-1.40625 4.5175781,-1.6787109 4.5175781,-2.2939453 V -9.421875 q 0,-0.3515625 -0.1230469,-0.5097656 -0.1230468,-0.1669924 -0.3603515,-0.1669924 -0.28125,0 -0.7998047,0.2900392 -0.5185547,0.2900391 -1.2832031,0.7998047 L 1.5644531,-9.6855469 5.6777344,-12.137695 h 0.4833984 q -0.052734,0.84375 -0.052734,2.3378903 z"
         id="text8"
         style="font-size:18px;font-family:'Cambria Math', 'Cambria Math_MSFontService', sans-serif"
         transform="translate(455.235,233)"
         aria-label="1" />
      <path
         d="m 418,313 c 0,-21.539 17.461,-39 39,-39 21.539,0 39,17.461 39,39 0,21.539 -17.461,39 -39,39 -21.539,0 -39,-17.461 -39,-39 z"
         stroke="#000000"
         stroke-width="2"
         stroke-miterlimit="8"
         fill="#f2cfee"
         fill-rule="evenodd"
         id="path8" />
      <path
         d="m 4.0898437,-13.394531 q 0.28125,-1.253907 0.28125,-1.734375 0,-0.492188 -0.3046875,-0.691407 Q 3.7734375,-16.019531 3,-16.042969 l 0.140625,-0.609375 2.9648437,-0.105468 h 0.6796875 l -2.015625,8.1210932 0.140625,0.046875 q 1.1132813,-1.4765622 2.0976563,-2.1328122 0.9960938,-0.667969 2.0039063,-0.667969 1.0898442,0 1.6757812,0.632812 0.585938,0.621094 0.585938,1.7343755 0,0.7382812 -0.339844,2.0976563 l -0.761719,3.0703124 q -0.3164062,1.2773438 -0.3164062,1.8046875 0,0.4687501 0.1523442,0.6796876 0.152343,0.2109375 0.480468,0.2109375 0.351563,0 0.75,-0.28125 0.398438,-0.2929688 1.125,-1.1015626 l 0.667969,0.6562501 q -1.125,1.1835937 -1.851562,1.6289062 Q 10.464844,0.1875 9.5625,0.1875 q -0.7617187,0 -1.21875,-0.5390625 -0.4453125,-0.5390625 -0.4453125,-1.3945312 0,-0.7617188 0.3867188,-2.2382813 l 0.5039062,-2.0273437 q 0.2695313,-1.0898438 0.3632813,-1.6289063 0.09375,-0.5507813 0.09375,-0.8554688 0,-0.8320312 -0.2695313,-1.171875 -0.2695312,-0.3515622 -0.8789062,-0.3515622 -0.4804688,0 -1.0664063,0.3984372 -0.5859375,0.3984375 -1.2304688,1.21875 -0.6445312,0.8085938 -1.03125,1.5585938 -0.375,0.7382813 -0.5976562,1.7695313 L 3.1054688,0 H 1.078125 Z"
         id="text9"
         style="font-size:24px;font-family:'Cambria Math', 'Cambria Math_MSFontService', sans-serif"
         transform="translate(442.455,320)"
         aria-label="â„Ž" />
      <path
         d="m 6.1083984,-2.2939453 q 0,0.5097656 0.052734,0.7734375 0.061523,0.2548828 0.2021484,0.421875 0.1494141,0.15820311 0.421875,0.2548828 0.272461,0.0878906 0.6855469,0.140625 0.413086,0.0439453 1.0898438,0.0615234 V 0 H 2.0654297 V -0.64160156 Q 3.0410156,-0.68554687 3.4541016,-0.75585937 3.8759766,-0.83496094 4.0957031,-0.984375 4.3154297,-1.1337891 4.4121094,-1.40625 4.5175781,-1.6787109 4.5175781,-2.2939453 V -9.421875 q 0,-0.3515625 -0.1230469,-0.5097656 -0.1230468,-0.1669924 -0.3603515,-0.1669924 -0.28125,0 -0.7998047,0.2900392 -0.5185547,0.2900391 -1.2832031,0.7998047 L 1.5644531,-9.6855469 5.6777344,-12.137695 h 0.4833984 q -0.052734,0.84375 -0.052734,2.3378903 z"
         id="text10"
         style="font-size:18px;font-family:'Cambria Math', 'Cambria Math_MSFontService', sans-serif"
         transform="translate(455.235,325)"
         aria-label="1" />
      <path
         d="m 418,405 c 0,-21.539 17.461,-39 39,-39 21.539,0 39,17.461 39,39 0,21.539 -17.461,39 -39,39 -21.539,0 -39,-17.461 -39,-39 z"
         stroke="#000000"
         stroke-width="2"
         stroke-miterlimit="8"
         fill="#f2cfee"
         fill-rule="evenodd"
         id="path10" />
      <path
         d="m 4.0898437,-13.394531 q 0.28125,-1.253907 0.28125,-1.734375 0,-0.492188 -0.3046875,-0.691407 Q 3.7734375,-16.019531 3,-16.042969 l 0.140625,-0.609375 2.9648437,-0.105468 h 0.6796875 l -2.015625,8.1210932 0.140625,0.046875 q 1.1132813,-1.4765622 2.0976563,-2.1328122 0.9960938,-0.667969 2.0039063,-0.667969 1.0898442,0 1.6757812,0.632812 0.585938,0.621094 0.585938,1.7343755 0,0.7382812 -0.339844,2.0976563 l -0.761719,3.0703124 q -0.3164062,1.2773438 -0.3164062,1.8046875 0,0.4687501 0.1523442,0.6796876 0.152343,0.2109375 0.480468,0.2109375 0.351563,0 0.75,-0.28125 0.398438,-0.2929688 1.125,-1.1015626 l 0.667969,0.6562501 q -1.125,1.1835937 -1.851562,1.6289062 Q 10.464844,0.1875 9.5625,0.1875 q -0.7617187,0 -1.21875,-0.5390625 -0.4453125,-0.5390625 -0.4453125,-1.3945312 0,-0.7617188 0.3867188,-2.2382813 l 0.5039062,-2.0273437 q 0.2695313,-1.0898438 0.3632813,-1.6289063 0.09375,-0.5507813 0.09375,-0.8554688 0,-0.8320312 -0.2695313,-1.171875 -0.2695312,-0.3515622 -0.8789062,-0.3515622 -0.4804688,0 -1.0664063,0.3984372 -0.5859375,0.3984375 -1.2304688,1.21875 -0.6445312,0.8085938 -1.03125,1.5585938 -0.375,0.7382813 -0.5976562,1.7695313 L 3.1054688,0 H 1.078125 Z"
         id="text11"
         style="font-size:24px;font-family:'Cambria Math', 'Cambria Math_MSFontService', sans-serif"
         transform="translate(442.455,413)"
         aria-label="â„Ž" />
      <path
         d="m 6.1083984,-2.2939453 q 0,0.5097656 0.052734,0.7734375 0.061523,0.2548828 0.2021484,0.421875 0.1494141,0.15820311 0.421875,0.2548828 0.272461,0.0878906 0.6855469,0.140625 0.413086,0.0439453 1.0898438,0.0615234 V 0 H 2.0654297 V -0.64160156 Q 3.0410156,-0.68554687 3.4541016,-0.75585937 3.8759766,-0.83496094 4.0957031,-0.984375 4.3154297,-1.1337891 4.4121094,-1.40625 4.5175781,-1.6787109 4.5175781,-2.2939453 V -9.421875 q 0,-0.3515625 -0.1230469,-0.5097656 -0.1230468,-0.1669924 -0.3603515,-0.1669924 -0.28125,0 -0.7998047,0.2900392 -0.5185547,0.2900391 -1.2832031,0.7998047 L 1.5644531,-9.6855469 5.6777344,-12.137695 h 0.4833984 q -0.052734,0.84375 -0.052734,2.3378903 z"
         id="text12"
         style="font-size:18px;font-family:'Cambria Math', 'Cambria Math_MSFontService', sans-serif"
         transform="translate(455.235,418)"
         aria-label="1" />
      <path
         d="m 418,497 c 0,-21.539 17.461,-39 39,-39 21.539,0 39,17.461 39,39 0,21.539 -17.461,39 -39,39 -21.539,0 -39,-17.461 -39,-39 z"
         stroke="#000000"
         stroke-width="2"
         stroke-miterlimit="8"
         fill="#f2cfee"
         fill-rule="evenodd"
         id="path12" />
      <path
         d="m 4.0898437,-13.394531 q 0.28125,-1.253907 0.28125,-1.734375 0,-0.492188 -0.3046875,-0.691407 Q 3.7734375,-16.019531 3,-16.042969 l 0.140625,-0.609375 2.9648437,-0.105468 h 0.6796875 l -2.015625,8.1210932 0.140625,0.046875 q 1.1132813,-1.4765622 2.0976563,-2.1328122 0.9960938,-0.667969 2.0039063,-0.667969 1.0898442,0 1.6757812,0.632812 0.585938,0.621094 0.585938,1.7343755 0,0.7382812 -0.339844,2.0976563 l -0.761719,3.0703124 q -0.3164062,1.2773438 -0.3164062,1.8046875 0,0.4687501 0.1523442,0.6796876 0.152343,0.2109375 0.480468,0.2109375 0.351563,0 0.75,-0.28125 0.398438,-0.2929688 1.125,-1.1015626 l 0.667969,0.6562501 q -1.125,1.1835937 -1.851562,1.6289062 Q 10.464844,0.1875 9.5625,0.1875 q -0.7617187,0 -1.21875,-0.5390625 -0.4453125,-0.5390625 -0.4453125,-1.3945312 0,-0.7617188 0.3867188,-2.2382813 l 0.5039062,-2.0273437 q 0.2695313,-1.0898438 0.3632813,-1.6289063 0.09375,-0.5507813 0.09375,-0.8554688 0,-0.8320312 -0.2695313,-1.171875 -0.2695312,-0.3515622 -0.8789062,-0.3515622 -0.4804688,0 -1.0664063,0.3984372 -0.5859375,0.3984375 -1.2304688,1.21875 -0.6445312,0.8085938 -1.03125,1.5585938 -0.375,0.7382813 -0.5976562,1.7695313 L 3.1054688,0 H 1.078125 Z"
         id="text13"
         style="font-size:24px;font-family:'Cambria Math', 'Cambria Math_MSFontService', sans-serif"
         transform="translate(442.455,505)"
         aria-label="â„Ž" />
      <path
         d="m 6.1083984,-2.2939453 q 0,0.5097656 0.052734,0.7734375 0.061523,0.2548828 0.2021484,0.421875 0.1494141,0.15820311 0.421875,0.2548828 0.272461,0.0878906 0.6855469,0.140625 0.413086,0.0439453 1.0898438,0.0615234 V 0 H 2.0654297 V -0.64160156 Q 3.0410156,-0.68554687 3.4541016,-0.75585937 3.8759766,-0.83496094 4.0957031,-0.984375 4.3154297,-1.1337891 4.4121094,-1.40625 4.5175781,-1.6787109 4.5175781,-2.2939453 V -9.421875 q 0,-0.3515625 -0.1230469,-0.5097656 -0.1230468,-0.1669924 -0.3603515,-0.1669924 -0.28125,0 -0.7998047,0.2900392 -0.5185547,0.2900391 -1.2832031,0.7998047 L 1.5644531,-9.6855469 5.6777344,-12.137695 h 0.4833984 q -0.052734,0.84375 -0.052734,2.3378903 z"
         id="text14"
         style="font-size:18px;font-family:'Cambria Math', 'Cambria Math_MSFontService', sans-serif"
         transform="translate(455.235,510)"
         aria-label="1" />
      <path
         d="M 0.260981,-0.965344 138.667,36.4527 138.145,38.3834 -0.260981,0.965344 Z M 138.163,33.2088 l 6.679,5.9492 -8.767,1.7735 z"
         transform="matrix(1,0,0,-1,273,260.158)"
         id="path14" />
      <path
         d="m 273.344,259.061 138.582,50.76 -0.688,1.878 -138.582,-50.76 z m 138.362,47.484 6.136,6.507 -8.888,1.005 z"
         id="path15" />
      <path
         d="m 273.708,259.294 140.135,140.542 -1.417,1.412 -140.134,-140.542 z m 141.318,137.48 2.816,8.489 -8.481,-2.841 z"
         id="path16" />
      <path
         d="m 273.854,259.479 141.37,231.782 -1.708,1.041 -141.37,-231.781 z m 143.237,229.082 0.751,8.912 -7.581,-4.747 z"
         id="path17" />
      <path
         d="M 0.672995,-0.739647 140.584,126.563 139.238,128.042 -0.672995,0.739647 Z M 141.617,123.447 l 3.225,8.343 -8.609,-2.426 z"
         transform="matrix(1,0,0,-1,273,352.79)"
         id="path18" />
      <path
         d="M 0.263593,-0.964634 138.675,36.8572 138.147,38.7865 -0.263593,0.964634 Z M 138.179,33.6118 l 6.663,5.9673 -8.772,1.7498 z"
         transform="matrix(1,0,0,-1,273,352.579)"
         id="path19" />
      <path
         d="m 273.342,351.06 138.576,50.355 -0.684,1.879 -138.576,-50.354 z m 138.347,47.08 6.153,6.491 -8.885,1.028 z"
         id="path20" />
      <path
         d="M 273.707,351.293 413.835,491.42 412.42,492.835 272.293,352.707 Z m 141.306,137.064 2.829,8.485 -8.485,-2.829 z"
         id="path21" />
      <path
         d="M 0.840205,-0.54227 142.067,218.277 140.386,219.362 -0.840205,0.54227 Z M 143.865,215.53 l 0.977,8.891 -7.699,-4.552 z"
         transform="matrix(1,0,0,-1,273,445.421)"
         id="path22" />
      <path
         d="M 0.674169,-0.738577 140.592,126.978 139.244,128.455 -0.674169,0.738577 Z M 141.63,123.863 l 3.212,8.348 -8.606,-2.439 z"
         transform="matrix(1,0,0,-1,273,445.211)"
         id="path23" />
      <path
         d="M 0.2662,-0.963918 138.682,37.2617 138.15,39.1895 -0.2662,0.963918 Z M 138.195,34.0149 l 6.647,5.9853 -8.776,1.7261 z"
         transform="matrix(1,0,0,-1,273,445)"
         id="path24" />
      <path
         d="m 273.339,444.059 138.57,49.95 -0.678,1.881 -138.57,-49.949 z m 138.333,46.675 6.17,6.476 -8.883,1.05 z"
         id="path25" />
      <path
         d="m 569,352.5 c 0,-21.815 17.461,-39.5 39,-39.5 21.539,0 39,17.685 39,39.5 0,21.815 -17.461,39.5 -39,39.5 -21.539,0 -39,-17.685 -39,-39.5 z"
         stroke="#000000"
         stroke-width="2"
         stroke-miterlimit="8"
         fill="#c04f15"
         fill-rule="evenodd"
         id="path26" />
      <path
         d="m 9.9375,-16.183594 q 2.261719,0 3.480469,1.3125 1.230469,1.3125 1.230469,3.796875 0,1.8164065 -0.621094,4.089844 -0.621094,2.2617188 -1.804688,3.9257812 -1.171875,1.6523438 -2.6835935,2.46093755 -1.5117187,0.796875 -3.1640625,0.796875 -2.3554688,0 -3.5742187,-1.31249995 -1.2187501,-1.3125001 -1.2187501,-3.75 0,-1.7578125 0.5859376,-3.9726563 Q 2.765625,-11.050781 3.8789063,-12.738281 5.0039062,-14.4375 6.5507812,-15.304688 8.109375,-16.183594 9.9375,-16.183594 Z m 2.484375,4.617188 q 0,-3.585938 -2.6132812,-3.585938 -1.265625,0 -2.3671876,0.902344 -1.0898437,0.902344 -1.921875,2.578125 -0.8203125,1.6757812 -1.2773437,3.6796875 -0.4570312,2.0039063 -0.4570312,3.5390625 0,3.62109375 2.6367187,3.62109375 1.6054688,0 2.9414063,-1.47656255 1.3476567,-1.4765625 2.2031247,-4.1367187 0.855469,-2.671875 0.855469,-5.1210935 z"
         id="text26"
         style="font-size:24px;font-family:'Cambria Math', 'Cambria Math_MSFontService', sans-serif"
         transform="translate(592.723,360)"
         aria-label="ð‘‚" />
      <path
         d="m 6.1083984,-2.2939453 q 0,0.5097656 0.052734,0.7734375 0.061523,0.2548828 0.2021484,0.421875 0.1494141,0.15820311 0.421875,0.2548828 0.272461,0.0878906 0.6855469,0.140625 0.413086,0.0439453 1.0898438,0.0615234 V 0 H 2.0654297 V -0.64160156 Q 3.0410156,-0.68554687 3.4541016,-0.75585937 3.8759766,-0.83496094 4.0957031,-0.984375 4.3154297,-1.1337891 4.4121094,-1.40625 4.5175781,-1.6787109 4.5175781,-2.2939453 V -9.421875 q 0,-0.3515625 -0.1230469,-0.5097656 -0.1230468,-0.1669924 -0.3603515,-0.1669924 -0.28125,0 -0.7998047,0.2900392 -0.5185547,0.2900391 -1.2832031,0.7998047 L 1.5644531,-9.6855469 5.6777344,-12.137695 h 0.4833984 q -0.052734,0.84375 -0.052734,2.3378903 z"
         id="text27"
         style="font-size:18px;font-family:'Cambria Math', 'Cambria Math_MSFontService', sans-serif"
         transform="translate(607.283,365)"
         aria-label="1" />
      <path
         d="m 496.875,220.516 69.617,125.955 -1.75,0.967 -69.617,-125.954 z m 71.598,123.337 0.369,8.937 -7.371,-5.067 z"
         id="path27" />
      <path
         d="m 496.477,312.121 66.985,36.397 -0.955,1.757 -66.984,-36.396 z m 67.245,33.124 5.12,7.334 -8.939,-0.305 z"
         id="path28" />
      <path
         d="M 0.585661,-0.810556 68.0239,47.9164 66.8526,49.5375 -0.585661,0.810556 Z M 68.7002,44.7039 72.842,52.6314 64.0149,51.1883 Z"
         transform="matrix(1,0,0,-1,496,404.631)"
         id="path29" />
      <path
         d="M 0.893386,-0.44929 70.7401,138.437 68.9533,139.335 -0.893386,0.44929 Z M 72.8212,135.898 l 0.0208,8.944 -7.1679,-5.35 z"
         transform="matrix(1,0,0,-1,496,496.842)"
         id="path30" />
    </g>
  </g>
</svg>
